<?xml version="1.0" encoding="utf-8"?>
<svg version="1.1" xmlns:xlink="http://www.w3.org/1999/xlink" width="19px" height="20px" xmlns="http://www.w3.org/2000/svg">
  <defs>
    <pattern id="BGPattern" patternUnits="userSpaceOnUse" alignment="0 0" imageRepeat="None" />
    <mask fill="white" id="Clip42">
      <path d="M 18.580502717391305 8.016688061617458  C 18.860167572463766 8.337612323491657  19 8.724860932819853  19 9.178433889602054  L 19 10.821566110397946  C 19 11.275139067180145  18.860167572463766 11.662387676508343  18.580502717391305 11.983311938382542  C 18.300837862318843 12.304236200256739  17.93727355072464 12.46469833119384  17.489809782608695 12.46469833119384  L 8.402853260869565 12.46469833119384  L 12.184782608695652 16.238767650834404  C 12.511775362318842 16.546854942233633  12.675271739130435 16.93196405648267  12.675271739130435 17.394094993581515  C 12.675271739130435 17.85622593068036  12.511775362318842 18.241335044929397  12.184782608695652 18.549422336328625  L 11.216711956521738 19.525032092426187  C 10.89832427536232 19.841677364142065  10.511096014492754 20  10.055027173913043 20  C 9.607563405797102 20  9.216032608695652 19.841677364142065  8.880434782608695 19.525032092426187  L 0.47758152173913043 11.155327342747112  C 0.15919384057971026 10.838682071031236  0 10.453572956782198  0 10  C 0 9.554985023534446  0.15919384057971026 9.165596919127086  0.47758152173913043 8.83183568677792  L 8.880434782608695 0.4878048780487809  C 9.207427536231885 0.16260162601625883  9.598958333333334 0  10.055027173913043 0  C 10.502490942028986 0  10.889719202898553 0.16260162601625883  11.216711956521738 0.4878048780487809  L 12.184782608695652 1.4377406931964054  C 12.511775362318842 1.7629439452289253  12.675271739130435 2.152332049636283  12.675271739130435 2.605905006418485  C 12.675271739130435 3.059477963200683  12.511775362318842 3.448866067608043  12.184782608695652 3.774069319640565  L 8.402853260869565 7.535301668806163  L 17.489809782608695 7.535301668806163  C 17.93727355072464 7.535301668806163  18.300837862318843 7.69576379974326  18.580502717391305 8.016688061617458  Z " fill-rule="evenodd" />
    </mask>
  </defs>
  <g transform="matrix(1 0 0 1 -435 -146 )">
    <path d="M 18.580502717391305 8.016688061617458  C 18.860167572463766 8.337612323491657  19 8.724860932819853  19 9.178433889602054  L 19 10.821566110397946  C 19 11.275139067180145  18.860167572463766 11.662387676508343  18.580502717391305 11.983311938382542  C 18.300837862318843 12.304236200256739  17.93727355072464 12.46469833119384  17.489809782608695 12.46469833119384  L 8.402853260869565 12.46469833119384  L 12.184782608695652 16.238767650834404  C 12.511775362318842 16.546854942233633  12.675271739130435 16.93196405648267  12.675271739130435 17.394094993581515  C 12.675271739130435 17.85622593068036  12.511775362318842 18.241335044929397  12.184782608695652 18.549422336328625  L 11.216711956521738 19.525032092426187  C 10.89832427536232 19.841677364142065  10.511096014492754 20  10.055027173913043 20  C 9.607563405797102 20  9.216032608695652 19.841677364142065  8.880434782608695 19.525032092426187  L 0.47758152173913043 11.155327342747112  C 0.15919384057971026 10.838682071031236  0 10.453572956782198  0 10  C 0 9.554985023534446  0.15919384057971026 9.165596919127086  0.47758152173913043 8.83183568677792  L 8.880434782608695 0.4878048780487809  C 9.207427536231885 0.16260162601625883  9.598958333333334 0  10.055027173913043 0  C 10.502490942028986 0  10.889719202898553 0.16260162601625883  11.216711956521738 0.4878048780487809  L 12.184782608695652 1.4377406931964054  C 12.511775362318842 1.7629439452289253  12.675271739130435 2.152332049636283  12.675271739130435 2.605905006418485  C 12.675271739130435 3.059477963200683  12.511775362318842 3.448866067608043  12.184782608695652 3.774069319640565  L 8.402853260869565 7.535301668806163  L 17.489809782608695 7.535301668806163  C 17.93727355072464 7.535301668806163  18.300837862318843 7.69576379974326  18.580502717391305 8.016688061617458  Z " fill-rule="nonzero" fill="rgba(255, 255, 255, 1)" stroke="none" transform="matrix(1 0 0 1 435 146 )" class="fill" />
    <path d="M 18.580502717391305 8.016688061617458  C 18.860167572463766 8.337612323491657  19 8.724860932819853  19 9.178433889602054  L 19 10.821566110397946  C 19 11.275139067180145  18.860167572463766 11.662387676508343  18.580502717391305 11.983311938382542  C 18.300837862318843 12.304236200256739  17.93727355072464 12.46469833119384  17.489809782608695 12.46469833119384  L 8.402853260869565 12.46469833119384  L 12.184782608695652 16.238767650834404  C 12.511775362318842 16.546854942233633  12.675271739130435 16.93196405648267  12.675271739130435 17.394094993581515  C 12.675271739130435 17.85622593068036  12.511775362318842 18.241335044929397  12.184782608695652 18.549422336328625  L 11.216711956521738 19.525032092426187  C 10.89832427536232 19.841677364142065  10.511096014492754 20  10.055027173913043 20  C 9.607563405797102 20  9.216032608695652 19.841677364142065  8.880434782608695 19.525032092426187  L 0.47758152173913043 11.155327342747112  C 0.15919384057971026 10.838682071031236  0 10.453572956782198  0 10  C 0 9.554985023534446  0.15919384057971026 9.165596919127086  0.47758152173913043 8.83183568677792  L 8.880434782608695 0.4878048780487809  C 9.207427536231885 0.16260162601625883  9.598958333333334 0  10.055027173913043 0  C 10.502490942028986 0  10.889719202898553 0.16260162601625883  11.216711956521738 0.4878048780487809  L 12.184782608695652 1.4377406931964054  C 12.511775362318842 1.7629439452289253  12.675271739130435 2.152332049636283  12.675271739130435 2.605905006418485  C 12.675271739130435 3.059477963200683  12.511775362318842 3.448866067608043  12.184782608695652 3.774069319640565  L 8.402853260869565 7.535301668806163  L 17.489809782608695 7.535301668806163  C 17.93727355072464 7.535301668806163  18.300837862318843 7.69576379974326  18.580502717391305 8.016688061617458  Z " stroke-width="0" stroke-dasharray="0" stroke="rgba(255, 255, 255, 0)" fill="none" transform="matrix(1 0 0 1 435 146 )" class="stroke" mask="url(#Clip42)" />
  </g>
</svg>