<?xml version="1.0" encoding="utf-8"?>
<svg version="1.1" xmlns:xlink="http://www.w3.org/1999/xlink" width="642px" height="419px" xmlns="http://www.w3.org/2000/svg">
  <g transform="matrix(1 0 0 1 -92 -227 )">
    <path d="M 92 227  L 734 227  L 734 646  L 92 646  L 92 227  " fill-rule="nonzero" fill="rgba(204, 204, 204, 1)" stroke="none" class="fill" />
    <path d="M 121 256  L 705 256  L 705 617  L 121 617  L 121 256  " fill-rule="nonzero" fill="rgba(255, 255, 255, 1)" stroke="none" class="fill" />
    <path d="M 457.26500000000004 352.70000000000005  C 439.66700000000003 352.70000000000005  425.84000000000003 338.87300000000005  425.84000000000003 321.27500000000003  C 425.84000000000003 303.677  439.66700000000003 289.85  457.26500000000004 289.85  C 474.86300000000006 289.85  488.69000000000005 303.677  488.69000000000005 321.27500000000003  C 488.69000000000005 338.87300000000005  474.86300000000006 352.70000000000005  457.26500000000004 352.70000000000005  " fill-rule="nonzero" fill="rgba(204, 204, 204, 1)" stroke="none" class="fill" />
    <path d="M 132 607  L 132 420  L 272.75 335  L 469.8 473.85981308411215  L 582.4000000000001 386  L 695 473.85981308411215  L 695 607  L 132 607  " fill-rule="nonzero" fill="rgba(22, 155, 213, 1)" stroke="none" class="fill" />
  </g>
</svg>